# Blender v2.78 (sub 0) OBJ File: 'hightechdoor.blend'
# www.blender.org
o GlassRight
v 1.812500 1.812500 0.562500
v 0.687500 1.812500 0.562500
v 0.687500 1.062500 0.562500
v 1.812500 1.062500 0.562500
v 1.812500 1.812500 0.437500
v 1.812500 1.062500 0.437500
v 0.687500 1.062500 0.437500
v 0.687500 1.812500 0.437500
v 1.812500 0.937500 0.437500
v 1.812500 0.187500 0.437500
v 0.687500 0.187500 0.437500
v 0.687500 0.937500 0.437500
v 1.812500 0.937500 0.562500
v 0.687500 0.937500 0.562500
v 0.687500 0.187500 0.562500
v 1.812500 0.187500 0.562500
vt 0.0000 0.0833
vt 0.3750 0.0833
vt 0.3750 0.3333
vt 0.0000 0.3333
vt 0.3750 0.0833
vt 0.3750 0.3333
vt 0.0000 0.3333
vt 0.0000 0.0833
vt 0.3750 0.0833
vt 0.3750 0.3333
vt 0.0000 0.3333
vt 0.0000 0.0833
vt 0.0000 0.0833
vt 0.3750 0.0833
vt 0.3750 0.3333
vt 0.0000 0.3333
vn 0.0000 -0.0000 1.0000
vn 0.0000 0.0000 -1.0000
s off
f 1/1/1 2/2/1 3/3/1 4/4/1
f 5/5/2 6/6/2 7/7/2 8/8/2
f 9/9/2 10/10/2 11/11/2 12/12/2
f 13/13/1 14/14/1 15/15/1 16/16/1
o GlassLeft
v -0.812500 0.187500 0.562500
v 0.312500 0.187500 0.562500
v 0.312500 0.937500 0.562500
v -0.812500 0.937500 0.562500
v -0.812500 1.062500 0.437500
v -0.812500 1.812500 0.437500
v 0.312500 1.812500 0.437500
v 0.312500 1.062500 0.437500
v -0.812500 0.187500 0.437500
v -0.812500 0.937500 0.437500
v 0.312500 0.937500 0.437500
v 0.312500 0.187500 0.437500
v -0.812500 1.062500 0.562500
v 0.312500 1.062500 0.562500
v 0.312500 1.812500 0.562500
v -0.812500 1.812500 0.562500
vt 0.0000 0.0833
vt 0.3750 0.0833
vt 0.3750 0.3333
vt 0.0000 0.3333
vt 0.3750 0.0833
vt 0.3750 0.3333
vt 0.0000 0.3333
vt 0.0000 0.0833
vt 0.3750 0.0833
vt 0.3750 0.3333
vt 0.0000 0.3333
vt 0.0000 0.0833
vt 0.0000 0.0833
vt 0.3750 0.0833
vt 0.3750 0.3333
vt 0.0000 0.3333
vn 0.0000 -0.0000 1.0000
vn 0.0000 0.0000 -1.0000
s off
f 17/17/3 18/18/3 19/19/3 20/20/3
f 21/21/4 22/22/4 23/23/4 24/24/4
f 25/25/4 26/26/4 27/27/4 28/28/4
f 29/29/3 30/30/3 31/31/3 32/32/3
o LatchTop
v 0.312500 1.000000 0.375000
v 0.312500 1.077500 0.375000
v 0.687500 1.077500 0.375000
v 0.687500 1.000000 0.375000
v 0.422500 1.187500 0.375000
v 0.577500 1.187500 0.375000
v 0.343750 1.065000 0.343750
v 0.565000 1.156250 0.343750
v 0.435000 1.156250 0.343750
v 0.422500 1.187500 0.375000
v 0.577500 1.187500 0.375000
v 0.687500 1.077500 0.375000
v 0.656250 1.065000 0.343750
v 0.312500 1.077500 0.375000
v 0.312500 1.000000 0.375000
v 0.687500 1.000000 0.375000
v 0.656250 1.031250 0.343750
v 0.343750 1.031250 0.343750
v 0.312500 1.000000 0.625000
v 0.312500 1.077500 0.625000
v 0.687500 1.077500 0.625000
v 0.687500 1.000000 0.625000
v 0.422500 1.187500 0.625000
v 0.577500 1.187500 0.625000
v 0.343750 1.065000 0.656250
v 0.565000 1.156250 0.656250
v 0.435000 1.156250 0.656250
v 0.422500 1.187500 0.625000
v 0.577500 1.187500 0.625000
v 0.687500 1.077500 0.625000
v 0.656250 1.065000 0.656250
v 0.312500 1.077500 0.625000
v 0.312500 1.000000 0.625000
v 0.687500 1.000000 0.625000
v 0.656250 1.031250 0.656250
v 0.343750 1.031250 0.656250
vt 0.5521 0.2500
vt 0.5625 0.2396
vt 0.4375 0.2396
vt 0.4479 0.2500
vt 0.4479 0.2604
vt 0.5521 0.2604
vt 0.4375 0.2604
vt 0.4375 0.2917
vt 0.4479 0.2917
vt 0.4792 0.2917
vt 0.4792 0.3021
vt 0.5208 0.3021
vt 0.5208 0.2917
vt 0.5625 0.2604
vt 0.5521 0.2917
vt 0.5625 0.2917
vt 0.5625 0.2604
vt 0.5521 0.2604
vt 0.5521 0.2500
vt 0.4479 0.2500
vt 0.4375 0.2396
vt 0.5625 0.2396
vt 0.5521 0.2604
vt 0.4479 0.2604
vt 0.4479 0.2917
vt 0.4375 0.2917
vt 0.4375 0.2604
vt 0.4792 0.2917
vt 0.5208 0.2917
vt 0.5208 0.3021
vt 0.4792 0.3021
vt 0.5625 0.2604
vt 0.5521 0.2917
vt 0.5521 0.2604
vt 0.5625 0.2604
vt 0.5625 0.2917
vt 0.4479 0.2292
vt 0.5521 0.2292
vt 0.5521 0.2500
vt 0.4479 0.2500
vt 0.4479 0.2500
vt 0.4479 0.2292
vt 0.5521 0.2292
vt 0.5521 0.2500
vn 0.0000 -0.7071 -0.7071
vn 0.0000 0.0000 -1.0000
vn -0.5025 0.5025 -0.7035
vn 0.0000 0.7071 -0.7071
vn 0.7071 0.0000 -0.7071
vn -0.7071 0.0000 -0.7071
vn 0.5025 0.5025 -0.7035
vn 0.0000 -0.7071 0.7071
vn 0.0000 0.0000 1.0000
vn -0.5025 0.5025 0.7035
vn 0.0000 0.7071 0.7071
vn 0.7071 0.0000 0.7071
vn -0.7071 -0.0000 0.7071
vn 0.5025 0.5025 0.7035
s off
f 49/33/5 48/34/5 47/35/5 50/36/5
f 50/36/6 39/37/6 45/38/6 49/33/6
f 39/37/7 46/39/7 42/40/7 41/41/7
f 41/42/8 42/43/8 43/44/8 40/45/8
f 44/46/9 48/34/9 49/33/9 45/38/9
f 45/38/6 39/37/6 41/42/6 40/45/6
f 39/37/10 50/36/10 47/35/10 46/39/10
f 44/47/11 45/48/11 40/49/11 43/50/11
f 67/51/12 68/52/12 65/53/12 66/54/12
f 68/52/13 67/51/13 63/55/13 57/56/13
f 57/56/14 59/57/14 60/58/14 64/59/14
f 59/60/15 58/61/15 61/62/15 60/63/15
f 62/64/16 63/55/16 67/51/16 66/54/16
f 63/55/13 58/61/13 59/60/13 57/56/13
f 57/56/17 64/59/17 65/53/17 68/52/17
f 62/65/18 61/66/18 58/67/18 63/68/18
f 66/69/6 65/70/6 64/71/6 62/72/6
f 48/73/13 44/74/13 46/75/13 47/76/13
l 35 36
l 34 37
l 37 38
l 33 36
l 35 38
l 33 34
l 53 54
l 52 55
l 55 56
l 51 54
l 53 56
l 51 52
o DoorRight
v 0.500000 -0.000000 0.593750
v 0.500000 2.000000 0.593750
v 1.575625 0.156250 0.625000
v 1.968750 1.968750 0.625000
v 0.799375 0.968750 0.625000
v 0.656250 0.825625 0.625000
v 0.687500 0.812500 0.593750
v 0.687500 0.187500 0.593750
v 1.843750 0.424562 0.625000
v 1.812500 0.937500 0.593750
v 1.812500 0.437500 0.593750
v 0.656250 1.174375 0.625000
v 0.812500 1.062500 0.593750
v 1.843750 1.031250 0.625000
v 1.812500 1.062500 0.593750
v 0.799375 1.031250 0.625000
v 1.812500 1.812500 0.593750
v 0.687500 1.812500 0.593750
v 0.656250 1.843750 0.625000
v 1.843750 1.843750 0.375000
v 1.843750 0.968750 0.375000
v 0.656250 0.825625 0.375000
v 0.531250 1.968750 0.375000
v 0.656250 1.174375 0.375000
v 0.531250 0.031250 0.375000
v 1.968750 0.031250 0.375000
v 1.575625 0.156250 0.375000
v 0.812500 0.937500 0.406250
v 0.656250 0.156250 0.375000
v 1.812500 0.437500 0.406250
v 1.843750 0.424563 0.375000
v 0.799375 0.968750 0.375000
v 0.799375 1.031250 0.375000
v 1.843750 1.031250 0.375000
v 1.812500 1.812500 0.406250
v 0.656250 1.843750 0.375000
v 0.687500 1.812500 0.406250
v 0.687500 1.187500 0.406250
v 0.500000 2.000000 0.406250
v 2.000000 2.000000 0.593750
v 2.000000 -0.000000 0.593750
v 0.500000 -0.000000 0.406250
v 2.000000 2.000000 0.406250
v 2.000000 -0.000000 0.406250
v 0.687500 0.187500 0.406250
v 1.562500 0.187500 0.406250
v 1.562500 0.187500 0.593750
v 1.812500 0.937500 0.406250
v 0.812500 0.937500 0.593750
v 0.687500 0.812500 0.406250
v 1.812500 1.062500 0.406250
v 0.687500 1.187500 0.593750
v 0.812500 1.062500 0.406250
v 0.531250 1.968750 0.625000
v 0.531250 0.031250 0.625000
v 0.656250 0.156250 0.625000
v 1.968750 0.031250 0.625000
v 1.843750 0.968750 0.625000
v 1.843750 1.843750 0.625000
v 1.968750 1.968750 0.375000
vt 0.9479 0.4748
vt 0.9479 0.6562
vt 0.9896 0.3437
vt 0.8585 0.3854
vt 0.0000 0.0833
vt 0.0000 0.0000
vt 1.0000 0.0000
vt 1.0000 0.0833
vt 0.5521 0.7248
vt 0.5521 0.6084
vt 0.5999 0.6562
vt 0.5999 0.6770
vt 0.5104 0.3437
vt 0.5521 0.3854
vt 0.5625 0.3958
vt 0.8542 0.3958
vt 0.5625 0.6041
vt 0.5521 0.6084
vt 0.5999 0.6562
vt 0.6042 0.6458
vt 0.5521 0.7248
vt 0.5521 0.9479
vt 0.5625 0.9375
vt 0.5625 0.7291
vt 0.9479 0.6770
vt 0.5999 0.6770
vt 0.6042 0.6875
vt 0.9375 0.6875
vt 0.5625 0.6041
vt 0.6042 0.6458
vt 0.9479 0.9479
vt 0.9375 0.9375
vt 0.9375 0.4791
vt 0.9375 0.6458
vt 0.9479 0.4748
vt 0.9375 0.4791
vt 0.8542 0.3958
vt 0.8585 0.3854
vt 0.6042 0.6875
vt 0.9479 0.6770
vt 0.9375 0.6875
vt 1.0000 0.3333
vt 0.5000 0.3333
vt 0.5625 0.9375
vt 0.5521 0.9479
vt 0.5625 0.7291
vt 0.5104 0.9895
vt 0.5000 1.0000
vt 0.0000 0.0833
vt 0.0000 0.0000
vt 1.0000 0.0000
vt 1.0000 0.0833
vt 1.0000 -0.0000
vt 1.0000 0.0833
vt 0.0000 0.0833
vt 0.0000 -0.0000
vt 1.0000 0.0000
vt 1.0000 0.0833
vt 0.0000 0.0833
vt 0.0000 0.0000
vt 0.3125 0.0833
vt 0.4688 0.0833
vt 0.4688 0.0000
vt 0.3125 0.0000
vt 0.0208 0.0833
vt 0.0208 0.0000
vt 0.8750 0.0833
vt 0.9792 0.0833
vt 0.9792 0.0000
vt 0.8750 0.0000
vt 0.7708 0.0833
vt 0.7708 0.0000
vt 0.5104 0.0833
vt 0.5104 0.0000
vt 0.4688 0.0000
vt 0.0208 0.0000
vt 0.0208 0.0833
vt 0.4688 0.0833
vt 0.4896 0.0000
vt 0.1562 0.0000
vt 0.1562 0.0833
vt 0.4896 0.0833
vt 0.4688 0.0000
vt 0.9792 0.0000
vt 0.9792 0.0833
vt 0.4688 0.0833
vt 0.4896 0.0000
vt 0.7708 0.0000
vt 0.7708 0.0833
vt 0.4896 0.0833
vt 0.4688 0.0000
vt 0.4167 0.0000
vt 0.4167 0.0833
vt 0.4688 0.0833
vt 0.5625 0.3958
vt 0.5521 0.3854
vt 0.5000 0.3333
vt 0.5104 0.3437
vt 0.5104 0.9895
vt 0.5000 1.0000
vt 1.0000 1.0000
vt 0.9896 0.9895
vt 0.9479 0.6562
vt 0.9375 0.6458
vt 0.9896 0.3437
vt 0.9896 0.9895
vt 1.0000 1.0000
vt 0.9375 0.9375
vt 0.9479 0.9479
vt 1.0000 0.3333
vn -0.0000 0.0000 -1.0000
vn -1.0000 0.0000 0.0000
vn 0.0000 -0.0000 1.0000
vn 0.0000 0.7071 -0.7071
vn 0.4990 -0.4990 -0.7085
vn 0.7071 0.0000 -0.7071
vn 0.4990 -0.4990 0.7085
vn -0.7071 0.0000 -0.7071
vn -0.4996 0.4994 0.7078
vn 0.0000 0.7071 0.7071
vn 0.0000 -0.7071 -0.7071
vn 0.7071 -0.0000 0.7071
vn -0.4996 0.4994 -0.7078
vn 0.4990 0.4990 -0.7085
vn 0.4990 0.4990 0.7085
vn 0.0000 1.0000 0.0000
vn 0.0000 -1.0000 -0.0000
vn 1.0000 0.0000 0.0000
vn -0.7071 0.7071 0.0000
vn 0.7071 -0.7071 -0.0000
vn 0.7071 0.7071 0.0000
vn -0.7071 -0.0000 0.7071
vn 0.0000 -0.7071 0.7071
s off
f 99/77/19 89/78/19 94/79/19 95/80/19
f 110/81/20 69/82/20 70/83/20 107/84/20
f 80/85/21 74/86/21 73/87/21 84/88/21
f 93/89/19 97/90/19 95/80/19 94/79/19
f 95/80/22 97/90/22 113/91/22 114/92/22
f 118/93/23 90/94/23 100/95/23 96/96/23
f 92/97/24 104/98/24 105/99/24 106/100/24
f 102/101/22 101/102/22 121/103/22 119/104/22
f 73/87/25 74/86/25 75/105/25 117/106/25
f 88/107/26 102/101/26 119/104/26 103/108/26
f 89/78/26 99/77/26 98/109/26 116/110/26
f 77/111/27 79/112/27 115/113/27 71/114/27
f 81/115/28 84/88/28 82/116/28 83/117/28
f 101/102/19 100/95/19 90/94/19 92/97/19
f 100/95/19 101/102/19 102/101/19 89/78/19
f 116/110/29 96/96/29 100/95/29 89/78/29
f 94/79/29 112/118/29 110/119/29 93/89/29
f 86/120/30 87/121/30 80/85/30 120/122/30
f 118/93/24 113/91/24 97/90/24 90/94/24
f 99/77/31 95/80/31 114/92/31 98/109/31
f 121/103/32 101/102/32 92/97/32 106/100/32
f 88/107/29 103/108/29 105/99/29 104/98/29
f 80/85/33 84/88/33 81/115/33 120/122/33
f 91/123/26 93/89/26 110/119/26 107/124/26
f 107/125/34 70/126/34 108/127/34 111/128/34
f 112/129/35 109/130/35 69/131/35 110/132/35
f 111/133/36 108/134/36 109/135/36 112/136/36
f 113/137/36 118/138/36 75/139/36 76/140/36
f 114/141/34 113/137/34 76/140/34 115/142/34
f 98/143/37 114/144/37 115/145/37 79/146/37
f 116/147/20 98/143/20 79/146/20 78/148/20
f 96/149/35 116/147/35 78/148/35 117/150/35
f 118/138/38 96/149/38 117/150/38 75/139/38
f 119/151/34 121/152/34 81/153/34 83/154/34
f 103/155/20 119/156/20 83/157/20 85/158/20
f 105/159/35 103/160/35 85/161/35 86/162/35
f 106/163/36 105/164/36 86/165/36 120/166/36
f 121/167/39 106/168/39 120/169/39 81/170/39
f 76/171/28 124/172/28 71/114/28 115/113/28
f 69/173/40 123/174/40 122/175/40 70/176/40
f 122/175/21 123/174/21 124/172/21 87/121/21
f 108/177/28 70/176/28 122/175/28 72/178/28
f 76/171/30 75/105/30 74/86/30 124/172/30
f 93/89/19 91/123/19 104/98/19 97/90/19
f 84/88/21 73/87/21 126/179/21 82/116/21
f 78/180/40 79/112/40 77/111/40 126/179/40
f 71/114/21 124/172/21 123/174/21 125/181/21
f 77/111/21 71/114/21 125/181/21 126/179/21
f 89/78/19 88/107/19 128/182/19 94/79/19
f 128/182/22 91/123/22 107/124/22 111/183/22
f 128/182/24 111/183/24 112/118/24 94/79/24
f 91/123/19 128/182/19 88/107/19 104/98/19
f 85/184/40 83/117/40 82/116/40 127/185/40
f 85/184/41 127/185/41 87/121/41 86/120/41
f 126/179/41 73/87/41 117/106/41 78/180/41
f 108/177/30 72/178/30 125/181/30 109/186/30
f 109/186/41 125/181/41 123/174/41 69/173/41
f 72/178/21 122/175/21 87/121/21 127/185/21
f 126/179/21 125/181/21 72/178/21 127/185/21
o LatchBottom
v 0.577500 0.812500 0.375000
v 0.343750 0.935000 0.343750
v 0.656250 0.935000 0.343750
v 0.565000 0.843750 0.343750
v 0.435000 0.843750 0.343750
v 0.312500 0.922500 0.375000
v 0.422500 0.812500 0.375000
v 0.312500 1.000000 0.375000
v 0.343750 0.968750 0.343750
v 0.687500 0.922500 0.375000
v 0.687500 1.000000 0.375000
v 0.656250 0.968750 0.343750
v 0.343750 0.968750 0.656250
v 0.577500 0.812500 0.625000
v 0.565000 0.843750 0.656250
v 0.422500 0.812500 0.625000
v 0.435000 0.843750 0.656250
v 0.343750 0.935000 0.656250
v 0.312500 0.922500 0.625000
v 0.656250 0.935000 0.656250
v 0.687500 0.922500 0.625000
v 0.687500 1.000000 0.625000
v 0.312500 1.000000 0.625000
v 0.656250 0.968750 0.656250
vt 0.5521 0.2292
vt 0.5521 0.2188
vt 0.4479 0.2188
vt 0.4479 0.2292
vt 0.4792 0.1771
vt 0.4792 0.1875
vt 0.5208 0.1875
vt 0.5208 0.1771
vt 0.4375 0.2188
vt 0.4375 0.2396
vt 0.5625 0.2396
vt 0.4479 0.1875
vt 0.4375 0.1875
vt 0.5625 0.2188
vt 0.5625 0.1875
vt 0.5521 0.1875
vt 0.5521 0.2292
vt 0.4479 0.2292
vt 0.4479 0.2188
vt 0.5521 0.2188
vt 0.4792 0.1771
vt 0.5208 0.1771
vt 0.5208 0.1875
vt 0.4792 0.1875
vt 0.4375 0.2188
vt 0.4375 0.2396
vt 0.5625 0.2396
vt 0.4479 0.1875
vt 0.4375 0.1875
vt 0.5625 0.2188
vt 0.5521 0.1875
vt 0.5625 0.1875
vt 0.5521 0.2292
vt 0.5521 0.2500
vt 0.4479 0.2500
vt 0.4479 0.2292
vt 0.5521 0.2500
vt 0.4479 0.2500
vt 0.4479 0.2292
vt 0.5521 0.2292
vn 0.0000 0.0000 -1.0000
vn 0.0000 -0.7071 -0.7071
vn -0.7071 0.0000 -0.7071
vn 0.0000 0.7071 -0.7071
vn -0.5025 -0.5025 -0.7035
vn 0.7071 0.0000 -0.7071
vn 0.5025 -0.5025 -0.7035
vn 0.0000 0.0000 1.0000
vn 0.0000 -0.7071 0.7071
vn -0.7071 0.0000 0.7071
vn 0.0000 0.7071 0.7071
vn -0.5025 -0.5025 0.7035
vn 0.7071 0.0000 0.7071
vn 0.5025 -0.5025 0.7035
s off
f 140/187/42 131/188/42 130/189/42 137/190/42
f 135/191/43 133/192/43 132/193/43 129/194/43
f 130/189/42 131/188/42 132/193/42 133/192/42
f 134/195/44 136/196/44 137/190/44 130/189/44
f 137/190/45 136/196/45 139/197/45 140/187/45
f 133/198/46 135/199/46 134/195/46 130/189/46
f 131/188/47 140/187/47 139/197/47 138/200/47
f 131/188/48 138/200/48 129/201/48 132/202/48
f 152/203/49 141/204/49 146/205/49 148/206/49
f 144/207/50 142/208/50 143/209/50 145/210/50
f 146/205/49 145/210/49 143/209/49 148/206/49
f 147/211/51 146/205/51 141/204/51 151/212/51
f 141/204/52 152/203/52 150/213/52 151/212/52
f 145/214/53 146/205/53 147/211/53 144/215/53
f 148/206/54 149/216/54 150/213/54 152/203/54
f 148/206/55 143/217/55 142/218/55 149/216/55
f 150/219/42 149/220/42 147/221/42 151/222/42
f 139/223/49 136/224/49 134/225/49 138/226/49
o DoorLeft
v -1.000000 -0.000000 0.406250
v -1.000000 2.000000 0.593750
v -1.000000 -0.000000 0.593750
v 0.343750 0.825625 0.625000
v 0.312500 0.187500 0.593750
v -0.843750 0.968750 0.625000
v 0.200625 0.968750 0.625000
v -0.812500 1.062500 0.593750
v -0.575437 1.843750 0.625000
v -0.843750 1.575625 0.625000
v -0.562500 1.812500 0.593750
v -0.812500 1.562500 0.593750
v -0.968750 1.968750 0.625000
v 0.500000 2.000000 0.593750
v 0.468750 0.031250 0.625000
v 0.500000 -0.000000 0.593750
v 0.468750 1.968750 0.625000
v 0.200625 1.031250 0.625000
v -0.843750 1.031250 0.625000
v 0.343750 1.174375 0.625000
v 0.187500 0.937500 0.406250
v 0.187500 0.937500 0.593750
v 0.312500 0.812500 0.593750
v 0.312500 0.187500 0.406250
v -0.812500 0.187500 0.593750
v -0.812500 0.187500 0.406250
v -0.812500 0.937500 0.406250
v -0.812500 0.937500 0.593750
v 0.312500 1.187500 0.406250
v 0.187500 1.062500 0.593750
v -0.562500 1.812500 0.406250
v 0.312500 1.812500 0.593750
v 0.312500 1.187500 0.593750
v -0.843750 0.968750 0.375000
v 0.312500 0.812500 0.406250
v 0.343750 0.825625 0.375000
v 0.200625 0.968750 0.375000
v -0.812500 1.062500 0.406250
v 0.312500 1.812500 0.406250
v 0.343750 1.843750 0.375000
v 0.187500 1.062500 0.406250
v -0.812500 1.562500 0.406250
v -1.000000 2.000000 0.406250
v 0.468750 1.968750 0.375000
v 0.500000 -0.000000 0.406250
v 0.500000 2.000000 0.406250
v -0.968750 0.031250 0.375000
v 0.200625 1.031250 0.375000
v -0.843750 1.031250 0.375000
v -0.575437 1.843750 0.375000
v -0.843750 1.575625 0.375000
v 0.343750 1.174375 0.375000
v 0.343750 0.156250 0.625000
v 0.343750 1.843750 0.625000
v 0.468750 0.031250 0.375000
v 0.343750 0.156250 0.375000
v -0.843750 0.156250 0.625000
v -0.968750 0.031250 0.625000
v -0.843750 0.156250 0.375000
v -0.968750 1.968750 0.375000
vt 0.5000 1.0000
vt 0.4896 0.9896
vt 0.4896 0.3438
vt 0.5000 0.3333
vt 0.0000 0.0833
vt 0.0000 0.0000
vt 1.0000 0.0000
vt 1.0000 0.0833
vt 0.0000 0.0833
vt 0.0000 0.0000
vt 1.0000 0.0000
vt 1.0000 0.0833
vt 1.0000 0.0000
vt 1.0000 0.0833
vt 0.0000 0.0833
vt 0.0000 0.0000
vt 1.0000 0.0000
vt 1.0000 0.0833
vt 0.0000 0.0833
vt 0.0000 0.0000
vt 0.0521 0.6771
vt 0.4001 0.6771
vt 0.3958 0.6875
vt 0.0625 0.6875
vt 0.3958 0.6458
vt 0.4001 0.6563
vt 0.0521 0.6563
vt 0.0625 0.6458
vt 0.3958 0.6458
vt 0.4001 0.6563
vt 0.4479 0.6085
vt 0.4375 0.6042
vt 0.4375 0.7292
vt 0.4479 0.7249
vt 0.4001 0.6771
vt 0.3958 0.6875
vt 0.0521 0.8585
vt 0.1415 0.9479
vt 0.0104 0.9896
vt 0.0521 0.6563
vt 0.0625 0.6458
vt 0.0521 0.6771
vt 0.0521 0.8585
vt 0.0625 0.8542
vt 0.0625 0.6875
vt 0.0000 1.0000
vt 0.1415 0.9479
vt 0.4479 0.9479
vt 0.4375 0.9375
vt 0.1458 0.9375
vt 0.5312 0.0000
vt 0.5833 0.0000
vt 0.5833 0.0833
vt 0.5312 0.0833
vt 0.5417 0.0000
vt 0.2604 0.0000
vt 0.2604 0.0833
vt 0.5417 0.0833
vt 0.5312 0.0000
vt 0.0208 0.0000
vt 0.0208 0.0833
vt 0.5312 0.0833
vt 0.5417 0.0000
vt 0.8854 0.0000
vt 0.8854 0.0833
vt 0.5417 0.0833
vt 0.5312 0.0000
vt 0.9792 0.0000
vt 0.9792 0.0833
vt 0.5312 0.0833
vt 0.5312 0.0000
vt 0.4688 0.0000
vt 0.4688 0.0833
vt 0.5312 0.0833
vt 0.5312 0.0000
vt 0.0208 0.0000
vt 0.0208 0.0833
vt 0.5312 0.0833
vt 0.5417 0.0000
vt 0.8125 0.0000
vt 0.8125 0.0833
vt 0.5417 0.0833
vt 0.5312 0.0000
vt 0.6458 0.0000
vt 0.6458 0.0833
vt 0.5312 0.0833
vt 0.5312 0.0000
vt 0.9792 0.0000
vt 0.9792 0.0833
vt 0.5312 0.0833
vt 0.5417 0.0000
vt 0.2188 0.0000
vt 0.2188 0.0833
vt 0.5417 0.0833
vt 0.0625 0.8542
vt 0.1458 0.9375
vt 0.4479 0.6085
vt 0.4375 0.6042
vt 0.4479 0.7249
vt 0.4896 0.3438
vt 0.4896 0.9896
vt 0.5000 1.0000
vt 0.5000 0.3333
vt 0.4375 0.7292
vt 0.4375 0.9375
vt 0.4479 0.9479
vt 0.4375 0.3958
vt 0.4479 0.3854
vt 0.0104 0.3438
vt 0.0000 0.3333
vt 0.4479 0.3854
vt 0.4375 0.3958
vt 0.0000 0.3333
vt 0.0104 0.3438
vt 0.0104 0.9896
vt 0.0521 0.3854
vt 0.0625 0.3958
vt 0.0000 1.0000
vt 0.0625 0.3958
vt 0.0521 0.3854
vn 0.7071 -0.0000 0.7071
vn -1.0000 0.0000 0.0000
vn 0.0000 1.0000 0.0000
vn 1.0000 0.0000 0.0000
vn 0.0000 -1.0000 -0.0000
vn 0.0000 0.7071 0.7071
vn 0.0000 -0.7071 0.7071
vn -0.4990 -0.4990 -0.7085
vn -0.4990 0.4990 -0.7085
vn 0.0000 -0.0000 1.0000
vn 0.0000 -0.7071 -0.7071
vn 0.7071 0.0000 -0.7071
vn 0.0000 0.7071 -0.7071
vn -0.7071 -0.7071 -0.0000
vn -0.7071 0.7071 0.0000
vn 0.7071 -0.7071 0.0000
vn 0.4994 -0.4996 0.7078
vn -0.4990 -0.4990 0.7085
vn 0.4994 -0.4996 -0.7078
vn 0.0000 0.0000 -1.0000
vn -0.7071 0.0000 -0.7071
vn -0.4990 0.4990 0.7085
vn -0.7071 -0.0000 0.7071
s off
f 166/227/56 169/228/56 167/229/56 168/230/56
f 153/231/57 155/232/57 154/233/57 195/234/57
f 195/235/58 154/236/58 166/237/58 198/238/58
f 198/239/59 166/240/59 168/241/59 197/242/59
f 197/243/60 168/244/60 155/245/60 153/246/60
f 171/247/61 170/248/61 182/249/61 160/250/61
f 174/251/62 159/252/62 158/253/62 180/254/62
f 173/255/63 189/256/63 188/257/63 187/258/63
f 181/259/64 204/260/64 200/261/64 193/262/64
f 162/263/65 161/264/65 165/265/65 171/247/65
f 186/266/66 189/256/66 173/255/66 179/267/66
f 201/268/67 203/269/67 194/270/67 190/271/67
f 159/252/65 170/248/65 171/247/65 158/253/65
f 154/272/61 165/265/61 169/228/61 166/227/61
f 190/271/68 193/262/68 200/261/68 201/268/68
f 202/273/66 192/274/66 191/275/66 183/276/66
f 173/277/69 187/278/69 175/279/69 174/280/69
f 187/281/57 176/282/57 157/283/57 175/284/57
f 176/285/58 178/286/58 177/287/58 157/288/58
f 178/289/59 179/290/59 180/291/59 177/292/59
f 179/293/60 173/294/60 174/295/60 180/296/60
f 181/297/70 193/298/70 182/299/70 185/300/70
f 193/301/58 190/302/58 160/303/58 182/304/58
f 190/305/59 194/306/59 164/307/59 160/308/59
f 194/309/71 183/310/71 163/311/71 164/312/71
f 183/313/60 191/314/60 184/315/60 163/316/60
f 191/317/57 181/318/57 185/319/57 184/320/57
f 162/263/72 164/321/72 163/322/72 161/264/72
f 156/323/73 159/252/73 174/251/73 175/324/73
f 203/269/74 202/273/74 183/276/74 194/270/74
f 189/256/75 200/261/75 204/260/75 188/257/75
f 156/323/65 172/325/65 170/248/65 159/252/65
f 160/250/56 164/321/56 162/263/56 171/247/56
f 200/261/75 189/256/75 186/266/75 201/268/75
f 207/326/67 196/327/67 198/328/67 197/329/67
f 181/259/76 191/275/76 192/274/76 204/260/76
f 170/248/77 172/325/77 185/330/77 182/249/77
f 184/331/62 206/332/62 161/264/62 163/322/62
f 161/264/65 206/332/65 169/228/65 165/265/65
f 157/333/78 205/334/78 156/323/78 175/324/78
f 184/331/78 185/330/78 172/325/78 206/332/78
f 167/229/65 169/228/65 206/332/65 205/334/65
f 199/335/66 207/326/66 197/329/66 153/336/66
f 188/257/76 208/337/76 176/338/76 187/258/76
f 196/327/75 207/326/75 208/337/75 192/274/75
f 155/339/78 210/340/78 165/265/78 154/272/78
f 196/327/75 192/274/75 202/273/75 212/341/75
f 155/339/62 168/230/62 167/229/62 210/340/62
f 211/342/67 186/266/67 179/267/67 178/343/67
f 199/335/76 153/336/76 195/344/76 212/341/76
f 177/345/56 180/254/56 158/253/56 209/346/56
f 212/341/68 195/344/68 198/328/68 196/327/68
f 210/340/65 167/229/65 205/334/65 209/346/65
f 177/345/61 209/346/61 205/334/61 157/333/61
f 211/342/68 178/343/68 176/338/68 208/337/68
f 207/326/75 199/335/75 211/342/75 208/337/75
f 210/340/65 209/346/65 171/247/65 165/265/65
f 203/269/75 201/268/75 212/341/75 202/273/75
f 201/268/75 211/342/75 199/335/75 212/341/75
