# Blender v2.70 (sub 0) OBJ File: 'cochere.blend'
# www.blender.org
mtllib carriagedoor.mtl
o Right_Plane.006
v 3.437500 0.000000 0.812500
v 3.437500 0.000000 1.000000
v 2.437500 4.062500 0.812500
v 2.437500 4.062500 1.000000
v 2.000000 4.062500 1.000000
v 2.000000 4.062500 0.812500
v 3.437500 3.000000 0.812500
v 3.437500 3.000000 1.000000
v 3.187500 3.812500 1.000000
v 3.187500 3.812500 0.812500
v 3.375000 3.437500 0.812500
v 3.375000 3.437500 1.000000
v 2.875000 4.000000 1.000000
v 2.875000 4.000000 0.812500
v 2.000000 0.000000 0.812500
v 2.000000 0.000000 1.000000
vt 0.742424 0.000000
vt 0.742424 0.590909
vt 0.696970 0.590909
vt 0.696970 0.000000
vt 0.742424 0.909091
vt 0.742424 1.000000
vt 0.696970 1.000000
vt 0.696970 0.909091
vt 0.742424 0.666667
vt 0.696970 0.666667
vt 0.742424 0.757576
vt 0.742424 0.818182
vt 0.696970 0.818182
vt 0.696970 0.757576
vt 0.699576 0.738433
vt 0.699576 0.000059
vt 0.345772 0.000059
vt 0.345772 0.999940
vt 0.453451 0.999941
vt 0.561131 0.984558
vt 0.638045 0.938409
vt 0.684193 0.846113
vt 0.453451 0.999940
vt 0.345773 0.000059
vt 0.699576 0.000060
vt 0.742424 0.333333
vt 0.696970 0.333333
vn 1.000000 0.000000 0.000000
vn 0.000000 1.000000 0.000000
vn 0.989950 0.141421 0.000000
vn 0.514496 0.857493 0.000000
vn 0.894427 0.447214 0.000000
vn 0.141421 0.989950 0.000000
vn 0.000000 0.000000 -1.000000
vn 0.000000 0.000000 1.000000
vn -1.000000 0.000000 0.000000
vn 0.000000 -1.000000 0.000000
usemtl None
s off
f 1/1/1 7/2/1 8/3/1 2/4/1
f 3/5/2 6/6/2 5/7/2 4/8/2
f 7/2/3 11/9/3 12/10/3 8/3/3
f 10/11/4 14/12/4 13/13/4 9/14/4
f 11/9/5 10/11/5 9/14/5 12/10/5
f 14/12/6 3/5/6 4/8/6 13/13/6
f 7/15/7 1/16/7 15/17/7 6/18/7 3/19/7 14/20/7 10/21/7 11/22/7
f 8/15/8 12/22/8 9/21/8 13/20/8 4/23/8 5/18/8 16/24/8 2/25/8
f 5/6/9 6/7/9 15/4/9 16/1/9
f 2/1/10 16/26/10 15/27/10 1/4/10
o Left_Plane.001
v 0.562500 0.000000 1.000000
v 0.562500 0.000000 0.812500
v 1.562500 4.062500 1.000000
v 1.562500 4.062500 0.812500
v 2.000000 4.062500 0.812500
v 2.000000 4.062500 1.000000
v 0.562500 3.000000 1.000000
v 0.562500 3.000000 0.812500
v 0.812500 3.812500 0.812500
v 0.812500 3.812500 1.000000
v 0.625000 3.437500 1.000000
v 0.625000 3.437500 0.812500
v 1.125000 4.000000 0.812500
v 1.125000 4.000000 1.000000
v 2.000000 0.000000 1.000000
v 2.000000 0.000000 0.812500
vt 0.742424 0.000000
vt 0.742424 0.590909
vt 0.696970 0.590909
vt 0.696970 0.000000
vt 0.742424 0.909091
vt 0.742424 1.000000
vt 0.696970 1.000000
vt 0.696970 0.909091
vt 0.742424 0.666667
vt 0.696970 0.666667
vt 0.742424 0.757576
vt 0.742424 0.833333
vt 0.696970 0.833333
vt 0.696970 0.757576
vt 0.000060 0.738433
vt 0.000059 0.000059
vt 0.353863 0.000059
vt 0.353864 0.999940
vt 0.246184 0.999941
vt 0.138505 0.984558
vt 0.061591 0.938409
vt 0.015442 0.846113
vt 0.015443 0.846113
vt 0.246185 0.999940
vt 0.000059 0.000060
vt 0.742424 0.333333
vt 0.696970 0.333333
vn -1.000000 0.000000 0.000000
vn 0.000000 1.000000 0.000000
vn -0.989950 0.141421 0.000000
vn -0.514496 0.857493 0.000000
vn -0.894427 0.447214 0.000000
vn -0.141421 0.989950 0.000000
vn 0.000000 0.000000 1.000000
vn 0.000000 0.000000 -1.000000
vn 1.000000 0.000000 0.000000
vn 0.000000 -1.000000 0.000000
usemtl None
s off
f 17/28/11 23/29/11 24/30/11 18/31/11
f 19/32/12 22/33/12 21/34/12 20/35/12
f 23/29/13 27/36/13 28/37/13 24/30/13
f 26/38/14 30/39/14 29/40/14 25/41/14
f 27/36/15 26/38/15 25/41/15 28/37/15
f 30/39/16 19/32/16 20/35/16 29/40/16
f 23/42/17 17/43/17 31/44/17 22/45/17 19/46/17 30/47/17 26/48/17 27/49/17
f 24/42/18 28/50/18 25/48/18 29/47/18 20/51/18 21/45/18 32/44/18 18/52/18
f 21/33/19 22/34/19 31/31/19 32/28/19
f 18/28/20 32/53/20 31/54/20 17/31/20
o Frame_Plane
v 0.562500 0.000000 1.000000
v 0.000000 0.000000 0.812500
v 0.562500 0.000000 0.812500
v 2.000000 5.000000 1.000000
v 0.000000 5.000000 1.000000
v 1.562500 4.062500 1.000000
v 1.562500 4.062500 0.812500
v 0.562500 3.000000 1.000000
v 0.562500 3.000000 0.812500
v 0.812500 3.812500 0.812500
v 0.812500 3.812500 1.000000
v 0.625000 3.437500 1.000000
v 0.625000 3.437500 0.812500
v 1.125000 4.000000 0.812500
v 1.125000 4.000000 1.000000
v 4.000000 0.000000 0.812500
v 4.000000 5.000000 1.000000
v 2.000000 4.062500 0.812500
v 2.437500 5.000000 1.000000
v 2.437500 5.000000 0.812500
v 2.875000 5.000000 0.812500
v 4.000000 3.437500 0.812500
v 2.000000 4.062500 1.000000
v 2.875000 4.000000 0.812500
v 2.875000 4.000000 1.000000
v 0.000000 3.437500 1.000000
v 1.125000 5.000000 1.000000
v 1.562500 5.000000 1.000000
v 1.562500 5.000000 0.812500
v 3.375000 3.437500 1.000000
v 3.375000 3.437500 0.812500
v 3.187500 3.812500 0.812500
v 3.187500 3.812500 1.000000
v 3.437500 3.000000 1.000000
v 3.437500 3.000000 0.812500
v 2.437500 4.062500 1.000000
v 2.437500 4.062500 0.812500
v 4.000000 5.000000 0.812500
v 3.437500 0.000000 1.000000
v 4.000000 0.000000 1.000000
v 0.000000 5.000000 0.812500
v 2.000000 5.000000 0.812500
v 0.000000 0.000000 1.000000
v 1.125000 5.000000 0.812500
v 3.437500 0.000000 0.812500
v 0.000000 3.000000 1.000000
v 0.000000 3.000000 0.812500
v 0.000000 3.437500 0.812500
v 2.875000 5.000000 1.000000
v 4.000000 3.000000 0.812500
v 4.000000 3.000000 1.000000
v 4.000000 3.437500 1.000000
vt 0.000019 0.000019
vt 0.037518 0.000019
vt 0.037518 0.999981
vt 0.000020 0.999981
vt 0.762500 0.000000
vt 0.800000 0.000000
vt 0.800000 0.587500
vt 0.762500 0.587500
vt 0.762500 0.737500
vt 0.800000 0.737500
vt 0.800000 0.812500
vt 0.762500 0.812500
vt 0.800000 0.675000
vt 0.762500 0.675000
vt 0.800000 0.912500
vt 0.762500 0.912500
vt 0.800000 1.000000
vt 0.762500 1.000000
vt 0.112571 0.600000
vt 0.125069 0.687480
vt 0.000097 0.687481
vt 0.000096 0.600001
vt 0.637502 0.762442
vt 0.799973 0.999897
vt 0.575015 0.999899
vt 0.575013 0.799935
vt 0.687500 0.037500
vt 0.687500 0.000000
vt 0.800000 0.037500
vt 0.225074 0.799941
vt 0.312559 0.812437
vt 0.312563 0.999903
vt 0.225079 0.999905
vt 0.225047 0.799954
vt 0.225048 0.999910
vt 0.000098 0.999911
vt 0.162560 0.762463
vt 0.312528 0.812450
vt 0.312528 0.999909
vt 0.000120 0.999911
vt 0.162585 0.762450
vt 0.000112 0.687468
vt 0.125089 0.687464
vt 0.000089 0.000137
vt 0.112564 0.000136
vt 0.799971 0.000090
vt 0.799971 0.599972
vt 0.687493 0.599972
vt 0.687493 0.000090
vt 0.112589 0.599980
vt 0.000110 0.599984
vt 0.799928 0.000089
vt 0.799928 0.599989
vt 0.687447 0.599989
vt 0.687447 0.000089
vt 0.799927 0.687474
vt 0.674951 0.687473
vt 0.799925 0.999910
vt 0.637459 0.762459
vt 0.574972 0.999910
vt 0.574972 0.799951
vt 0.487490 0.812449
vt 0.487490 0.999909
vt 0.674995 0.687455
vt 0.799971 0.687455
vt 0.487529 0.812434
vt 0.487531 0.999900
vt 0.000000 0.037500
vt 0.000000 0.000000
vt 0.112500 0.000000
vt 0.112500 0.037500
vt 0.800000 0.950000
vt 0.000000 1.000000
vt 0.000000 0.950000
vt 0.000089 0.000093
vt 0.112569 0.000089
vt 0.400009 0.812450
vt 0.400009 0.999909
vt 0.400044 0.812435
vt 0.400047 0.999901
vn 1.000000 0.000000 0.000000
vn -1.000000 0.000000 0.000000
vn -0.514496 -0.857493 0.000000
vn 0.989950 -0.141421 0.000000
vn 0.514496 -0.857493 0.000000
vn 0.894427 -0.447214 0.000000
vn 0.141421 -0.989950 0.000000
vn 0.000000 -1.000000 0.000000
vn 0.000000 0.000000 -1.000000
vn 0.000000 0.000000 1.000000
vn -0.141421 -0.989950 0.000000
vn -0.894427 -0.447214 0.000000
vn 0.000000 1.000000 0.000000
vn -0.989950 -0.141421 0.000000
usemtl None_cochere.png
s off
f 72/55/21 48/56/21 70/57/21 49/58/21
f 34/55/22 75/56/22 37/57/22 73/58/22
usemtl None_carriage_frame.png
f 33/59/21 35/60/21 41/61/21 40/62/21
f 64/63/23 65/64/23 57/65/23 56/66/23
f 40/62/24 41/61/24 45/67/24 44/68/24
f 43/63/25 42/64/25 46/65/25 47/66/25
f 44/68/26 45/67/26 42/64/26 43/63/26
f 47/66/27 46/65/27 39/69/27 38/70/27
f 69/70/28 68/69/28 55/71/28 50/72/28
f 67/73/29 63/74/29 54/75/29 82/76/29
f 65/77/30 49/78/30 81/79/30 57/80/30
f 48/81/28 72/82/28 71/60/28 77/83/28
f 47/84/30 38/85/30 60/86/30 59/87/30
f 56/88/29 53/89/29 70/90/29 64/91/29
f 56/88/29 69/92/29 52/93/29 53/89/29
f 47/84/30 59/87/30 37/94/30 43/95/30
f 43/95/30 37/94/30 58/96/30 44/97/30
f 48/98/29 77/99/29 67/73/29 82/76/29
f 72/100/30 83/101/30 66/102/30 71/103/30
f 56/66/31 57/65/31 68/69/31 69/70/31
f 40/104/30 44/97/30 58/96/30 78/105/30
f 34/106/29 79/107/29 41/108/29 35/109/29
f 41/108/29 79/107/29 80/110/29 45/111/29
f 73/112/29 42/113/29 45/111/29 80/110/29
f 42/113/29 73/112/29 76/114/29 46/115/29
f 39/116/29 46/115/29 76/114/29 61/117/29
f 63/68/32 62/67/32 65/64/32 64/63/32
f 49/78/30 65/77/30 62/118/30 84/119/30
f 68/120/30 57/80/30 81/79/30 51/121/30
f 64/91/29 70/90/29 54/75/29 63/74/29
f 75/122/28 34/123/28 35/124/28 33/125/28
f 66/102/30 83/101/30 84/119/30 62/118/30
f 49/126/33 70/71/33 73/127/33 37/128/33
f 67/62/34 66/61/34 62/67/34 63/68/34
f 75/129/30 33/130/30 40/104/30 78/105/30
f 77/59/22 71/60/22 66/61/22 67/62/22
f 52/93/29 69/92/29 50/131/29 74/132/29
f 60/86/30 38/85/30 55/133/30 36/134/30
f 38/70/28 39/69/28 50/71/28 55/72/28
f 50/131/29 39/116/29 61/117/29 74/132/29
f 55/133/30 68/120/30 51/121/30 36/134/30
